<?xml version="1.0" encoding="UTF-8" standalone="no"?>
<svg
   xmlns:dc="http://purl.org/dc/elements/1.1/"
   xmlns:cc="http://creativecommons.org/ns#"
   xmlns:rdf="http://www.w3.org/1999/02/22-rdf-syntax-ns#"
   xmlns:svg="http://www.w3.org/2000/svg"
   xmlns="http://www.w3.org/2000/svg"
   xmlns:sodipodi="http://sodipodi.sourceforge.net/DTD/sodipodi-0.dtd"
   xmlns:inkscape="http://www.inkscape.org/namespaces/inkscape"
   version="1.1"
   id="svg8"
   sodipodi:docname="otf.svg"
   width="200"
   height="120"
   inkscape:version="0.92.4 (unknown)">
  <metadata
     id="metadata14">
    <rdf:RDF>
      <cc:Work
         rdf:about="">
        <dc:format>image/svg+xml</dc:format>
        <dc:type
           rdf:resource="http://purl.org/dc/dcmitype/StillImage" />
        <dc:title />
      </cc:Work>
    </rdf:RDF>
  </metadata>
  <defs
     id="defs12" />
  <sodipodi:namedview
     pagecolor="#ffffff"
     bordercolor="#666666"
     borderopacity="1"
     objecttolerance="10"
     gridtolerance="10"
     guidetolerance="10"
     inkscape:pageopacity="0"
     inkscape:pageshadow="2"
     inkscape:window-width="1366"
     inkscape:window-height="717"
     id="namedview10"
     showgrid="false"
     fit-margin-top="0"
     fit-margin-left="0"
     fit-margin-right="0"
     fit-margin-bottom="0"
     inkscape:zoom="1.18"
     inkscape:cx="-23.927346"
     inkscape:cy="-23.704675"
     inkscape:window-x="0"
     inkscape:window-y="0"
     inkscape:window-maximized="1"
     inkscape:current-layer="svg8" />
  <g
     id="g1458"
     transform="matrix(0.80653697,0,0,0.80653697,14.103813,7.8621695)">
    <path
       style="fill:#25aae1"
       inkscape:connector-curvature="0"
       id="path2"
       d="m 12,40.644068 h 6 v 6 h -6 z m 0,42 h 6 v 6 h -6 z m -6,-36 h 6 v 6 H 6 Z m 0,30 h 6 v 6 H 6 Z m -6,-24 h 6 v 24 H 0 Z" />
    <path
       inkscape:connector-curvature="0"
       style="fill:#404041;fill-opacity:1"
       id="path4"
       d="m 79.417,46.644068 a 3.433,3.433 0 0 0 -3.417,-3.55 3.375,3.375 0 0 0 -3.392,3.517 3.433,3.433 0 0 0 3.417,3.55 3.375,3.375 0 0 0 3.383,-3.517 m -9.408,0 a 6,6 0 1 1 12,0 6,6 0 0 1 -12,0 m 21.487,-0.435 a 1.79,1.79 0 0 0 1.371,-0.406 c 0.377,-0.319 0.597,-0.778 0.605,-1.264 0,-1.084 -0.778,-1.63 -2.026,-1.63 h -1.925 v 3.375 l 1.975,-0.074 z m -4.47,-5.565 h 4.638 c 2.704,0 4.345,1.564 4.345,3.813 0,2.559 -2.043,3.879 -4.588,3.879 h -1.9 v 3.308 H 87 Z m 13.983,0 h 7.922 v 2.16 h -5.62 v 2.224 h 4.946 v 2.16 h -4.946 v 2.305 H 109 v 2.151 h -8 z m 13,0 h 2.284 l 5.274,6.779 v -6.779 H 124 v 11 h -2.11 l -5.448,-6.99 v 6.99 H 114 Z m -38.698,20.232 H 72 v -2.232 h 9 v 2.232 h -3.31 v 8.768 H 75.302 Z M 86,58.644068 h 7.93 v 2.151 h -5.633 v 2.233 h 4.958 v 2.151 h -4.958 v 2.314 H 94 v 2.151 h -8 z m 13.002,5.509 a 5.368,5.368 0 0 1 1.63,-3.934 5.563,5.563 0 0 1 4.017,-1.568 5.652,5.652 0 0 1 4.271,1.642 l -1.52,1.722 a 4.032,4.032 0 0 0 -2.767,-1.203 3.225,3.225 0 0 0 -2.29,1.001 3.112,3.112 0 0 0 -0.854,2.316 c -0.057,0.86 0.247,1.704 0.841,2.337 a 3.225,3.225 0 0 0 2.303,1.012 3.942,3.942 0 0 0 2.847,-1.25 l 1.52,1.51 a 5.588,5.588 0 0 1 -4.44,1.901 5.521,5.521 0 0 1 -3.971,-1.587 5.328,5.328 0 0 1 -1.587,-3.915 m 14.998,-5.493 h 2.34 v 4.351 h 4.312 v -4.351 H 123 v 11 h -2.348 v -4.416 h -4.312 v 4.416 H 114 Z m 16,0 h 2.276 l 5.274,6.77 v -6.77 H 140 v 11 h -2.11 l -5.448,-6.99 v 6.99 H 130 Z m 23.417,6 a 3.433,3.433 0 0 0 -3.417,-3.55 3.375,3.375 0 0 0 -3.392,3.517 3.433,3.433 0 0 0 3.417,3.55 3.375,3.375 0 0 0 3.383,-3.517 m -9.408,0 a 6,6 0 1 1 12,0 6,6 0 0 1 -12,0 m 17,-6 h 2.45 v 8.8 H 169 v 2.2 h -8 z m 20.4,6 a 3.433,3.433 0 0 0 -3.417,-3.55 3.375,3.375 0 0 0 -3.383,3.517 3.433,3.433 0 0 0 3.417,3.55 3.375,3.375 0 0 0 3.383,-3.517 m -9.4,0 a 6,6 0 1 1 12,0 6,6 0 0 1 -12,0 m 16,-0.484 c 0,-1.474 0.64,-2.888 1.776,-3.923 1.136,-1.035 2.674,-1.606 4.269,-1.585 1.659,-0.08 3.285,0.446 4.53,1.463 l -1.584,1.747 a 4.456,4.456 0 0 0 -3.014,-1.078 c -1.904,0.077 -3.384,1.56 -3.312,3.321 -0.057,0.885 0.287,1.752 0.949,2.394 a 3.6,3.6 0 0 0 2.542,0.99 4.298,4.298 0 0 0 2.392,-0.638 v -1.503 h -2.554 v -2.03 H 199 v 4.627 c -1.368,1.096 -3.12,1.697 -4.93,1.692 -1.613,0.076 -3.187,-0.477 -4.34,-1.524 -1.151,-1.047 -1.776,-2.492 -1.721,-3.984 m 18.271,1.18 -4.28,-6.665 h 2.867 l 2.654,4.416 2.702,-4.416 H 213 l -4.272,6.616 v 4.384 H 206.28 Z M 72,77.644068 h 8 v 2.2 h -5.688 v 2.346 h 5.013 v 2.192 h -5.013 v 4.262 H 72 Z m 13,6.191 v -6.191 h 2.534 v 6.127 c 0,1.758 0.929,2.676 2.466,2.676 1.537,0 2.466,-0.879 2.466,-2.596 v -6.207 H 95 v 6.111 c 0,3.275 -1.943,4.889 -5.017,4.889 -3.074,0 -4.95,-1.598 -4.95,-4.793 m 14.967,-6.207 h 2.276 l 5.274,6.77 v -6.77 H 110 v 11 h -2.11 l -5.448,-6.998 v 6.998 H 100 Z m 18.23,8.836 a 3.067,3.067 0 0 0 2.345,-0.893 c 0.622,-0.62 0.958,-1.477 0.925,-2.362 a 3.192,3.192 0 0 0 -0.909,-2.396 3.091,3.091 0 0 0 -2.36,-0.923 h -1.843 v 6.647 l 1.843,-0.073 z m -4.23,-8.836 h 4.23 c 3.414,0 5.77,2.376 5.77,5.484 0,3.1 -2.356,5.516 -5.77,5.516 H 114 Z" />
    <path
       style="fill:#25aae1"
       inkscape:connector-curvature="0"
       id="path6"
       d="m 36,40.644068 h 6 v 6 h -6 z m 6,36 h 6 v 6 h -6 z m -6,6 h 6 v 6 h -6 z m 6,-36 h 6 v 6 h -6 z m 6,6 h 6 v 24 h -6 z" />
  </g>
</svg>
